<?xml version="1.0" encoding="utf-8"?>
<!-- Generator: Adobe Illustrator 19.2.1, SVG Export Plug-In . SVG Version: 6.00 Build 0)  -->
<svg version="1.1" id="layer" xmlns="http://www.w3.org/2000/svg" xmlns:xlink="http://www.w3.org/1999/xlink" x="0px" y="0px"
	 viewBox="0 0 652 652" style="enable-background:new 0 0 652 652;" xml:space="preserve">
<style type="text/css">
	.st0{fill:#1226AA;}
	.st1{fill:#009FE3;}
	.st2{fill:url(#SVGID_1_);}
</style>
<g>
	<g>
		<g>
			<path class="st0" d="M313.2,524.9c0,22.4-2.9,43.3-35.6,45.3c-1.8,0.2-3.9,0.2-6,0.2v-17.4c1.2,0,2.6,0,3.6-0.2
				c15.1-1.7,16.2-13.2,16.2-27.3v-113h21.9v112.4H313.2z"/>
		</g>
		<g>
			<path class="st0" d="M337.8,469.4c0-30.4,22.4-60.3,60.9-60.3s60.9,29.9,60.9,60.6c0,30.7-22.4,60.3-60.9,60.3
				s-60.9-29.7-60.9-60.3V469.4z M359.7,469.8c0,22.7,17.2,39.7,39.1,39.7c21.9,0,39.1-17,39.1-39.9c0-22.9-17.2-39.9-39.1-39.9
				c-21.9,0-39.1,17-39.1,39.9V469.8z"/>
		</g>
		<g>
			<path class="st0" d="M482,412.5h20.6v16.8c6.6-13.4,18.4-20,34-20.2v21.9h-1.4c-20.6,0-31.3,11.3-31.3,34v61.8h-21.9V412.5H482z"
				/>
		</g>
		<g>
			<path class="st0" d="M560.2,476.6c1,23.1,21.2,34.9,38.4,34.9c15.3,0,26.7-7.3,33-19.3h22.7c-5.4,12.6-13.4,22.1-23.1,28.3
				c-9.7,6.6-21,9.7-32.6,9.7c-37.4,0-60.6-30-60.6-60.3c0-32.8,25.7-60.8,60.3-60.8c16.4,0,31.3,6.1,42.2,16.8
				c13.4,13.7,19.1,31.6,17.2,50.7h-97.7V476.6z M636.2,459.5c-1-15.1-16.2-32.1-37.8-31.8c-22.2,0-36.8,16.2-37.8,31.8H636.2z"/>
		</g>
		<g>
			<path class="st0" d="M679.3,371.3h21.9v155.4h-21.9V371.3z"/>
		</g>
		<g>
			<path class="st0" d="M237.5,412.5v14.1c-10.7-10.6-25.3-17.1-41.3-17.1c-32.8,0-59.3,27-59.3,60.1s26.7,60.1,59.3,60.1
				c16.1,0,30.7-6.6,41.3-17.1v14.1h21.9V412.5H237.5z M196.1,508.6c-21.1,0-38.2-17.6-38.2-39c0-21.6,17.1-39,38.2-39
				s38.2,17.6,38.2,39C234.3,491.2,217.1,508.6,196.1,508.6z"/>
		</g>
		<path class="st0" d="M64.6,409.8c-15.3,0-28.9,7.1-37.9,18.2c-8.9-11.1-22.6-18.2-37.9-18.2c-10.9,0-21,3.7-29.1,9.7v-6.8h-20.3
			v114.2h0.9h19.6h2v-68.4c0-15,12.1-27.1,27.1-27.1S16,443.5,16,458.5v68.4h21.6v-68.4c0-15,12.1-27.1,27.1-27.1
			s27.1,12.1,27.1,27.1v68.4h21.6v-68.4C113.1,431.6,91.3,409.8,64.6,409.8z"/>
		<circle class="st0" cx="302.8" cy="382.8" r="14.3"/>
	</g>
	<path class="st1" d="M393.1,299.4c26.2,19,53.3,38.6,83.6,46.3c-2.9,3-5.8,5.9-8.7,8.6c-28.1-8.7-53.1-26.1-77.3-43.7
		c-6.4-9.6-13.4-19.1-21.2-27.9C377.5,288.1,385.2,293.7,393.1,299.4z M446.9,370.2c1.3-0.8,2.7-1.6,4-2.4
		c-16.6-8-31.8-21.4-46.7-36C420.9,357.6,433.8,377.7,446.9,370.2z M205.2,305.3c0,0,46-58.4,96-58.4c39.9,0,63.8,31,63.8,31
		c11.4,4.9,23.2,10.6,35.1,16.3c28.7,13.8,58.1,28,90.8,35.3c2.3-2.9,4.7-5.9,7.1-8.9c-33.4-6.7-63.9-21.3-93.4-35.6
		c-18.8-9.1-37.3-18-55.9-24.3c26.6,4.1,54.1,12.6,83.2,21.4c25.1,7.7,51,15.6,78.4,21.4c2-2.9,3.9-5.9,5.9-8.9
		c-28.4-5.9-55.3-14.1-81.4-22.1c-32.7-10-63.6-19.3-93.2-23.1c53.3-2.2,114.8,10.4,185.4,27.7c1.7-2.9,3.3-5.7,4.9-8.7
		c-62.1-15.1-122.2-28.6-176-28.8c-0.4,0-0.9,0-1.3,0c-6,0-11.8,0.2-17.4,0.4c61.1-12.7,132.6-9.8,204.2,10.2
		c1.4-2.8,2.8-5.6,4.1-8.4c-65.6-18.4-131.6-23.4-191.1-14.3c-7.6,1.1-14.9,2.6-22.1,4.1c64-22.9,142.9-32.9,221.8-8.6
		c1.1-2.8,2.3-5.4,3.4-8.2c-82-25.7-164.1-14.8-230.3,9.3c9.1-4.4,18.6-8.8,28.2-12.8c76.1-31.3,146.6-36.8,209.3-16.1
		c0.9-2.8,1.8-5.4,2.7-8.1c-64.8-21.3-137.2-15.9-215.2,16.3c-9.4,3.9-18.8,8.1-27.8,12.6c70.3-42.7,161.8-77.8,248.7-49.3
		c0.7-2.8,1.2-5.4,1.8-8.1c-89.3-28.8-182.9,7-254.6,50.4c14.7-10.6,30.6-21,47.2-30.7c78.7-45.7,149.2-59.6,210.2-41.6
		c0.2-2.8,0.3-5.4,0.3-8.1c-62.7-17.8-134.8-3.4-214.6,42.9c-16.6,9.6-32.2,19.9-46.8,30.2c16.7-13.6,34.8-27.1,54.1-39.8
		c76.6-50.2,145.2-69,204.9-56.3c-0.8-2.9-1.7-5.7-2.7-8.3c-60.7-11.3-129.8,8.1-206.3,58.3c-19.3,12.7-37.4,26.2-54.1,39.8
		c12.7-11.6,26.2-23.1,40.6-34.4c46-36.2,90.2-61.4,131.6-75c23-7.6,45-11.3,66-11.7c-6.7-2.6-14.2-4-23.1-4
		c-4.7,0-9.2,0.2-13.9,0.7c-10.3,2-20.8,4.7-31.6,8.2c-42,13.8-87,39.4-133.8,76.1c-24.8,19.4-47.3,40-66.8,59.2
		c-24,25.2-42.9,48.2-54.8,63.2c-4.9,6.1-14.8,18.4-14.8,18.4l-8,4L205.2,305.3z"/>
	
		<linearGradient id="SVGID_1_" gradientUnits="userSpaceOnUse" x1="204.0072" y1="430.8625" x2="578.0073" y2="430.8625" gradientTransform="matrix(1 0 0 -1 0 652)">
		<stop  offset="7.580000e-002" style="stop-color:#1226AA"/>
		<stop  offset="0.6893" style="stop-color:#1226AA;stop-opacity:0"/>
	</linearGradient>
	<path class="st2" d="M393.1,299.4c26.2,19,53.3,38.6,83.6,46.3c-2.9,3-5.8,5.9-8.7,8.6c-28.1-8.7-53.1-26.1-77.3-43.7
		c-6.4-9.6-13.4-19.1-21.2-27.9C377.5,288.1,385.2,293.7,393.1,299.4z M446.9,370.2c1.3-0.8,2.7-1.6,4-2.4
		c-16.6-8-31.8-21.4-46.7-36C420.9,357.6,433.8,377.7,446.9,370.2z M205.2,305.3c0,0,46-58.4,96-58.4c39.9,0,63.8,31,63.8,31
		c11.4,4.9,23.2,10.6,35.1,16.3c28.7,13.8,58.1,28,90.8,35.3c2.3-2.9,4.7-5.9,7.1-8.9c-33.4-6.7-63.9-21.3-93.4-35.6
		c-18.8-9.1-37.3-18-55.9-24.3c26.6,4.1,54.1,12.6,83.2,21.4c25.1,7.7,51,15.6,78.4,21.4c2-2.9,3.9-5.9,5.9-8.9
		c-28.4-5.9-55.3-14.1-81.4-22.1c-32.7-10-63.6-19.3-93.2-23.1c53.3-2.2,114.8,10.4,185.4,27.7c1.7-2.9,3.3-5.7,4.9-8.7
		c-62.1-15.1-122.2-28.6-176-28.8c-0.4,0-0.9,0-1.3,0c-6,0-11.8,0.2-17.4,0.4c61.1-12.7,132.6-9.8,204.2,10.2
		c1.4-2.8,2.8-5.6,4.1-8.4c-65.6-18.4-131.6-23.4-191.1-14.3c-7.6,1.1-14.9,2.6-22.1,4.1c64-22.9,142.9-32.9,221.8-8.6
		c1.1-2.8,2.3-5.4,3.4-8.2c-82-25.7-164.1-14.8-230.3,9.3c9.1-4.4,18.6-8.8,28.2-12.8c76.1-31.3,146.6-36.8,209.3-16.1
		c0.9-2.8,1.8-5.4,2.7-8.1c-64.8-21.3-137.2-15.9-215.2,16.3c-9.4,3.9-18.8,8.1-27.8,12.6c70.3-42.7,161.8-77.8,248.7-49.3
		c0.7-2.8,1.2-5.4,1.8-8.1c-89.3-28.8-182.9,7-254.6,50.4c14.7-10.6,30.6-21,47.2-30.7c78.7-45.7,149.2-59.6,210.2-41.6
		c0.2-2.8,0.3-5.4,0.3-8.1c-62.7-17.8-134.8-3.4-214.6,42.9c-16.6,9.6-32.2,19.9-46.8,30.2c16.7-13.6,34.8-27.1,54.1-39.8
		c76.6-50.2,145.2-69,204.9-56.3c-0.8-2.9-1.7-5.7-2.7-8.3c-60.7-11.3-129.8,8.1-206.3,58.3c-19.3,12.7-37.4,26.2-54.1,39.8
		c12.7-11.6,26.2-23.1,40.6-34.4c46-36.2,90.2-61.4,131.6-75c23-7.6,45-11.3,66-11.7c-6.7-2.6-14.2-4-23.1-4
		c-4.7,0-9.2,0.2-13.9,0.7c-10.3,2-20.8,4.7-31.6,8.2c-42,13.8-87,39.4-133.8,76.1c-24.8,19.4-47.3,40-66.8,59.2
		c-24,25.2-42.9,48.2-54.8,63.2c-4.9,6.1-14.8,18.4-14.8,18.4l-8,4L205.2,305.3z"/>
	<g>
		<g>
			<g>
				<path class="st1" d="M113.6,305.3h91.7c2.2-3.1,4.6-6.1,6.9-8.9h-98.7C113.6,299.5,113.6,302.5,113.6,305.3z"/>
				<path class="st1" d="M113.6,323.1H193c2-2.9,4-5.9,6-8.9h-85.4C113.6,318.5,113.6,321.5,113.6,323.1z"/>
				<path class="st1" d="M116.8,340.8h62.6c2.4-2.8,4.9-5.8,7.2-8.9h-72.3C114.8,334.8,115.6,337.8,116.8,340.8z"/>
				<path class="st1" d="M122.6,349.8c4.8,5,12.1,8.6,23.1,8.6c9.3,0,17.2-3.3,24.2-8.6H122.6z"/>
			</g>
			<path class="st1" d="M271.8,225.2H113.6c0,2.9,0,5.9,0,8.9h150.2C266.3,231.2,269,228.2,271.8,225.2z"/>
			<path class="st1" d="M255.9,242.9H113.6c0,2.9,0,5.9,0,8.9h134.7C250.7,248.9,253.2,246.1,255.9,242.9z"/>
			<path class="st1" d="M240.8,260.8H113.6c0,3,0,5.9,0,8.9h119.9C235.8,266.8,238.1,263.9,240.8,260.8z"/>
			<path class="st1" d="M328.5,171.8H116.9c-1.1,2.8-2,5.8-2.6,8.9h203.9C321.6,177.7,325,174.7,328.5,171.8z"/>
			<path class="st1" d="M298.7,198.3c3.1-2.9,6.2-5.8,9.4-8.7l0,0H113.6c0,2,0,5,0,8.9h185C298.6,198.4,298.7,198.4,298.7,198.3z"/>
			<path class="st1" d="M281.7,214.7c2.4-2.4,4.9-4.9,7.4-7.3H113.6c0,2.8,0,5.8,0,8.9h166.6C280.7,215.7,281.1,215.2,281.7,214.7z"
				/>
			<path class="st1" d="M348.5,155.5c0.6-0.4,1.1-0.9,1.7-1.2c-81.8,0-192.4,0-206.2,0c-9.4,0-16.4,3.3-21.3,8.7h216.8
				C342.2,160.4,345.3,157.9,348.5,155.5z"/>
		</g>
		<path class="st1" d="M226.3,278.6H113.6c0,3,0,6,0,8.9h105.7C221.7,284.4,224.3,281.1,226.3,278.6z"/>
	</g>
</g>
</svg>
